<svg xmlns="http://www.w3.org/2000/svg" viewBox="0 0 760 672" width="760" height="672" role="img" aria-label="charmmgui2cp2k architecture and data flow">
  <defs>
    <marker id="arrow" markerWidth="9" markerHeight="9" refX="5.5" refY="3" orient="auto" markerUnits="strokeWidth">
      <path d="M0,0 L6,3 L0,6 Z" fill="#8a98a8"/>
    </marker>
    <style>
      text{font-family:"DejaVu Sans","Arial","Helvetica",sans-serif;}
      .band {fill:#64748b; font-size:11.5px; font-weight:700; letter-spacing:.09em;}
      .box  {fill:#ffffff; stroke:#cdd7e6; stroke-width:1.3;}
      .boxh {fill:#eef4fd; stroke:#1f6feb; stroke-width:1.4;}
      .core {fill:#f8fafc; stroke:#cbd5e1; stroke-width:1.4;}
      .step {fill:#ffffff; stroke:#dbe3f0; stroke-width:1.1;}
      .safe {fill:#fbfcfe; stroke:#e3e9f2; stroke-width:1.1;}
      .out  {fill:#eafaf3; stroke:#009E73; stroke-width:1.4;}
      .badge{fill:#1f6feb;}
      .bnum {fill:#ffffff; font-size:11px; font-weight:700; text-anchor:middle; dominant-baseline:central;}
      .t    {fill:#16202c; font-size:13px; text-anchor:middle;}
      .ts   {fill:#28323d; font-size:12px;}
      .tc   {fill:#28323d; font-size:12px; text-anchor:middle;}
      .tsub {fill:#6b7886; font-size:10.5px; text-anchor:middle;}
      .flow {stroke:#8a98a8; stroke-width:1.6; fill:none;}
    </style>
  </defs>

  <!-- INPUTS -->
  <text class="band" x="22" y="20">INPUTS &#183; CHARMM-GUI / AMBER</text>
  <rect class="box" x="22"  y="30" width="222" height="48" rx="9"/>
  <rect class="box" x="269" y="30" width="222" height="48" rx="9"/>
  <rect class="box" x="516" y="30" width="222" height="48" rx="9"/>
  <text class="t" x="133" y="52">topology</text><text class="tsub" x="133" y="68">step3_input.parm7</text>
  <text class="t" x="380" y="52">coordinates</text><text class="tsub" x="380" y="68">step3_input.rst7</text>
  <text class="t" x="627" y="52">QM region</text><text class="tsub" x="627" y="68">step5_production.mdin</text>

  <path class="flow" d="M380,80 L380,106" marker-end="url(#arrow)"/>

  <!-- FRONTENDS -->
  <text class="band" x="22" y="126">FRONTENDS &#183; ONE SHARED CORE</text>
  <rect class="boxh" x="22"  y="136" width="222" height="42" rx="9"/>
  <rect class="boxh" x="269" y="136" width="222" height="42" rx="9"/>
  <rect class="boxh" x="516" y="136" width="222" height="42" rx="9"/>
  <text class="tc" x="133" y="162">CLI wizard</text>
  <text class="tc" x="380" y="162">Textual TUI workbench</text>
  <text class="tc" x="627" y="162">Non-interactive batch</text>

  <path class="flow" d="M380,180 L380,206" marker-end="url(#arrow)"/>

  <!-- CORE -->
  <rect class="core" x="22" y="214" width="716" height="312" rx="13"/>
  <text class="band" x="40" y="238">VALIDATED SCIENTIFIC CORE</text>

  <!-- step rows: badge circle + label -->
  <g>
    <rect class="step" x="42"  y="250" width="334" height="42" rx="8"/>
    <circle class="badge" cx="66" cy="271" r="11"/><text class="bnum" x="66" y="271">1</text>
    <text class="ts" x="86" y="275">Topology validation</text>

    <rect class="step" x="384" y="250" width="334" height="42" rx="8"/>
    <circle class="badge" cx="408" cy="271" r="11"/><text class="bnum" x="408" y="271">2</text>
    <text class="ts" x="428" y="275">QM region + link atoms</text>

    <rect class="step" x="42"  y="302" width="334" height="42" rx="8"/>
    <circle class="badge" cx="66" cy="323" r="11"/><text class="bnum" x="66" y="323">3</text>
    <text class="ts" x="86" y="327">Boundary charge redistribution</text>

    <rect class="step" x="384" y="302" width="334" height="42" rx="8"/>
    <circle class="badge" cx="408" cy="323" r="11"/><text class="bnum" x="408" y="323">4</text>
    <text class="ts" x="428" y="327">Electronic structure + spin risk</text>

    <rect class="step" x="42"  y="354" width="334" height="42" rx="8"/>
    <circle class="badge" cx="66" cy="375" r="11"/><text class="bnum" x="66" y="375">5</text>
    <text class="ts" x="86" y="379">CP2K capability gating</text>

    <rect class="step" x="384" y="354" width="334" height="42" rx="8"/>
    <circle class="badge" cx="408" cy="375" r="11"/><text class="bnum" x="408" y="375">6</text>
    <text class="ts" x="428" y="379">Input assembly</text>

    <rect class="safe" x="42" y="412" width="676" height="96" rx="8"/>
    <text class="band" x="58" y="434" style="fill:#94a3b8;">SAFEGUARDS THROUGHOUT</text>
    <text class="tsub" x="380" y="458">forbidden-cut rejection &#183; cross-channel charge conservation &#183; link-geometry checks</text>
    <text class="tsub" x="380" y="478">multiplicity-parity enforcement &#183; version + data-file gating</text>
    <text class="tsub" x="380" y="498">deterministic provenance header &#183; --strict gate</text>
  </g>

  <path class="flow" d="M380,526 L380,552" marker-end="url(#arrow)"/>

  <!-- OUTPUTS -->
  <text class="band" x="22" y="572">OUTPUTS</text>
  <rect class="out" x="22"  y="582" width="350" height="64" rx="9"/>
  <rect class="out" x="388" y="582" width="350" height="64" rx="9"/>
  <text class="tc" x="197" y="608">CP2K QM/MM inputs</text><text class="tsub" x="197" y="628">embedded provenance header</text>
  <text class="tc" x="563" y="608">Audit artifacts</text><text class="tsub" x="563" y="628">boundary_charges &#183; electronic_state &#183; provenance</text>
</svg>
