<svg xmlns="http://www.w3.org/2000/svg" viewBox="0 0 760 532" width="760" height="532" role="img" aria-label="charmmgui2cp2k architecture and data flow">
  <defs>
    <marker id="arrow" markerWidth="9" markerHeight="9" refX="5.5" refY="3" orient="auto" markerUnits="strokeWidth">
      <path d="M0,0 L6,3 L0,6 Z" fill="#8a98a8"/>
    </marker>
    <style>
      text{font-family:"DejaVu Sans","Arial","Helvetica",sans-serif;}
      .box  {fill:#ffffff; stroke:#cdd7e6; stroke-width:1.3;}
      .boxh {fill:#eef4fd; stroke:#1f6feb; stroke-width:1.4;}
      .core {fill:#f8fafc; stroke:#cbd5e1; stroke-width:1.4;}
      .step {fill:#ffffff; stroke:#dbe3f0; stroke-width:1.1;}
      .safe {fill:#fbfcfe; stroke:#e3e9f2; stroke-width:1.1;}
      .out  {fill:#eafaf3; stroke:#009E73; stroke-width:1.4;}
      .badge{fill:#1f6feb;}
      .bnum {fill:#ffffff; font-size:11px; font-weight:700; text-anchor:middle; dominant-baseline:central;}
      .t    {fill:#16202c; font-size:13px; text-anchor:middle;}
      .ts   {fill:#28323d; font-size:12px;}
      .tc   {fill:#28323d; font-size:12px; text-anchor:middle;}
      .tsub {fill:#6b7886; font-size:10.5px; text-anchor:middle;}
      .flow {stroke:#8a98a8; stroke-width:1.6; fill:none;}
    </style>
  </defs>

  <!-- INPUTS -->
  <rect class="box" x="22"  y="12" width="222" height="48" rx="9"/>
  <rect class="box" x="269" y="12" width="222" height="48" rx="9"/>
  <rect class="box" x="516" y="12" width="222" height="48" rx="9"/>
  <text class="t" x="133" y="34">topology</text><text class="tsub" x="133" y="50">step3_input.parm7</text>
  <text class="t" x="380" y="34">coordinates</text><text class="tsub" x="380" y="50">step3_input.rst7</text>
  <text class="t" x="627" y="34">QM region</text><text class="tsub" x="627" y="50">step5_production.mdin</text>

  <path class="flow" d="M380,62 L380,84" marker-end="url(#arrow)"/>

  <!-- FRONTENDS -->
  <rect class="boxh" x="22"  y="90" width="222" height="42" rx="9"/>
  <rect class="boxh" x="269" y="90" width="222" height="42" rx="9"/>
  <rect class="boxh" x="516" y="90" width="222" height="42" rx="9"/>
  <text class="tc" x="133" y="116">CLI wizard</text>
  <text class="tc" x="380" y="116">Textual TUI workbench</text>
  <text class="tc" x="627" y="116">Non-interactive batch</text>

  <path class="flow" d="M380,134 L380,156" marker-end="url(#arrow)"/>

  <!-- CORE -->
  <rect class="core" x="22" y="164" width="716" height="260" rx="13"/>
  <g>
    <rect class="step" x="42"  y="176" width="334" height="42" rx="8"/>
    <circle class="badge" cx="66" cy="197" r="11"/><text class="bnum" x="66" y="197">1</text>
    <text class="ts" x="86" y="201">Topology validation</text>

    <rect class="step" x="384" y="176" width="334" height="42" rx="8"/>
    <circle class="badge" cx="408" cy="197" r="11"/><text class="bnum" x="408" y="197">2</text>
    <text class="ts" x="428" y="201">QM region + link atoms</text>

    <rect class="step" x="42"  y="228" width="334" height="42" rx="8"/>
    <circle class="badge" cx="66" cy="249" r="11"/><text class="bnum" x="66" y="249">3</text>
    <text class="ts" x="86" y="253">Boundary charge redistribution</text>

    <rect class="step" x="384" y="228" width="334" height="42" rx="8"/>
    <circle class="badge" cx="408" cy="249" r="11"/><text class="bnum" x="408" y="249">4</text>
    <text class="ts" x="428" y="253">Electronic structure + spin risk</text>

    <rect class="step" x="42"  y="280" width="334" height="42" rx="8"/>
    <circle class="badge" cx="66" cy="301" r="11"/><text class="bnum" x="66" y="301">5</text>
    <text class="ts" x="86" y="305">CP2K capability gating</text>

    <rect class="step" x="384" y="280" width="334" height="42" rx="8"/>
    <circle class="badge" cx="408" cy="301" r="11"/><text class="bnum" x="408" y="301">6</text>
    <text class="ts" x="428" y="305">Input assembly</text>

    <rect class="safe" x="42" y="332" width="676" height="80" rx="8"/>
    <text class="tsub" x="380" y="358">forbidden-cut rejection &#183; cross-channel charge conservation &#183; link-geometry checks</text>
    <text class="tsub" x="380" y="378">multiplicity-parity enforcement &#183; version + data-file gating</text>
    <text class="tsub" x="380" y="398">deterministic provenance header &#183; --strict gate</text>
  </g>

  <path class="flow" d="M380,426 L380,448" marker-end="url(#arrow)"/>

  <!-- OUTPUTS -->
  <rect class="out" x="22"  y="456" width="350" height="64" rx="9"/>
  <rect class="out" x="388" y="456" width="350" height="64" rx="9"/>
  <text class="tc" x="197" y="482">CP2K QM/MM inputs</text><text class="tsub" x="197" y="502">embedded provenance header</text>
  <text class="tc" x="563" y="482">Audit artifacts</text><text class="tsub" x="563" y="502">boundary_charges &#183; electronic_state &#183; provenance</text>
</svg>
